<?xml version="1.0" encoding="UTF-8"?>
<svg id="Layer_1" xmlns="http://www.w3.org/2000/svg" version="1.1" viewBox="0 0 95 60">
  <!-- Generator: Adobe Illustrator 30.1.0, SVG Export Plug-In . SVG Version: 2.1.1 Build 136)  -->
  <defs>
    <style>
      .st0, .st1 {
        fill: #231f20;
      }

      .st2, .st1 {
        isolation: isolate;
      }

      .st1 {
        font-family: Lato-Regular, Lato;
        font-size: 5.85px;
        letter-spacing: .43em;
      }
    </style>
  </defs>
  <g>
    <path class="st0" d="M41.79,2.22c.34,1.48.57,3.33.71,5.54s.22,4.57.25,7.09.04,4.78.04,6.8v7.44h1.17v-7.44c0-2.01,0-4.28.04-6.8.03-2.52.11-4.88.25-7.09s.38-4.06.71-5.54C45.3.74,45.77,0,46.39,0h-6.04C40.97,0,41.44.74,41.78,2.22h.01Z"/>
    <path class="st0" d="M4.79,56.52c-.34-1.48-.57-3.33-.71-5.54-.14-2.21-.22-4.57-.25-7.09s-.04-4.78-.04-6.8V5.54l17.02,23.55h9.02L8.81,0H.17c.67,0,1.17.74,1.51,2.22s.57,3.33.71,5.54c.14,2.21.21,4.57.21,7.09v29.03c0,2.52-.07,4.88-.21,7.09s-.38,4.06-.71,5.54c-.34,1.48-.84,2.22-1.51,2.22h6.04c-.62,0-1.09-.74-1.43-2.22h0Z"/>
    <polygon class="st0" points="42.8 35.3 42.8 47.08 34.3 35.3 25.29 35.3 43.14 60 43.98 60 43.98 35.3 42.8 35.3"/>
  </g>
  <g>
    <path class="st0" d="M57.15,2.22c.34,1.48.57,3.33.71,5.54s.21,4.57.21,7.09v14.23h6.8v-7.77c0-2.01.01-4.27.04-6.76s.11-4.81.25-6.96c.14-2.15.38-3.96.71-5.41C66.21.73,66.71,0,67.38,0h-11.75C56.3,0,56.8.74,57.14,2.22h0Z"/>
    <path class="st0" d="M86.77,57.19c-3.02.53-6.63.8-10.82.8h-4.78c-2.52-.11-4.2-.7-5.03-1.76-.84-1.06-1.26-2.49-1.26-4.28v-16.65h-6.8v8.59c0,2.52-.07,4.88-.21,7.09s-.38,4.06-.71,5.54c-.34,1.48-.84,2.22-1.51,2.22h39.19v-4.03c-2.35,1.12-5.03,1.94-8.06,2.48h-.01Z"/>
  </g>
  <g class="st2">
    <text class="st1" transform="translate(13.01 34.17)"><tspan x="0" y="0">NEXUS LIVING</tspan></text>
  </g>
</svg>