<?xml version="1.0" encoding="UTF-8"?>
<svg version="1.1" xmlns="http://www.w3.org/2000/svg" width="650" height="196">
<path d="M0 0 C39.93 0 79.86 0 121 0 C126.28 9.57 131.56 19.14 137 29 C140.88731285 22.52114525 144.68476818 16.05603362 148.3125 9.4375 C149.18204258 7.85201287 150.05305526 6.26733081 150.92578125 4.68359375 C151.48906128 3.65576782 151.48906128 3.65576782 152.0637207 2.60717773 C153 1 153 1 154 0 C156.34253782 -0.09492722 158.65546104 -0.12559791 160.99829102 -0.11352539 C162.09578674 -0.11374443 162.09578674 -0.11374443 163.2154541 -0.1139679 C165.64496784 -0.11326867 168.07440583 -0.10547585 170.50390625 -0.09765625 C172.18399514 -0.0957921 173.86408457 -0.09436819 175.54417419 -0.09336853 C179.97473643 -0.08954307 184.4052661 -0.07971256 188.83581543 -0.06866455 C193.35342976 -0.05845103 197.87104934 -0.05387104 202.38867188 -0.04882812 C211.25912893 -0.03809031 220.12956176 -0.02101356 229 0 C229.00586624 0.83414429 229.01173248 1.66828857 229.01777649 2.52770996 C229.07583342 10.41325704 229.1479841 18.29852479 229.23571491 26.18379974 C229.28032113 30.23709602 229.31959825 34.29029404 229.34643555 38.34375 C229.37256646 42.26024073 229.41303672 46.17635138 229.46318626 50.09260559 C229.47978916 51.58196766 229.49134422 53.07139538 229.49761391 54.56083679 C229.21342963 67.51505138 229.21342963 67.51505138 235.375 78.375 C241.20794142 81.9858685 246.18012221 82.84989358 253 82 C257.96763794 80.3775728 261.08044635 78.35980281 264 74 C266.7689316 66.06500853 266.34424788 57.31274146 266.4140625 49.0234375 C266.4328129 47.60282312 266.45238907 46.18221943 266.4727478 44.7616272 C266.52366678 41.05627801 266.56350528 37.35089288 266.60089111 33.64538574 C266.64829363 29.18138841 266.70971586 24.7175638 266.76873779 20.25370789 C266.85645841 13.5025432 266.92657318 6.75140332 267 0 C278.22 0 289.44 0 301 0 C301.16043524 18.44559576 301.16043524 18.44559576 301.1953125 26.38085938 C301.21911343 31.77026357 301.24709895 37.15939286 301.30175781 42.54858398 C301.34560237 46.89934083 301.36921748 51.24980239 301.37950897 55.60076332 C301.38683176 57.25076246 301.40112894 58.90074764 301.42292023 60.55061913 C301.61320881 75.57162915 299.61386318 88.73000271 289 100.15234375 C277.29446084 111.37711969 263.78215677 113.35417466 248.1875 113.3125 C246.99318359 113.32861328 245.79886719 113.34472656 244.56835938 113.36132812 C229.87214234 113.36932824 217.0409218 109.9622508 206.125 99.75 C198.01618581 91.11897238 194.7997125 80.90496694 194.68115234 69.20703125 C194.66608391 68.10800224 194.66608391 68.10800224 194.65071106 66.98677063 C194.62013125 64.59535417 194.60291506 62.20404829 194.5859375 59.8125 C194.56720549 58.14240585 194.54763059 56.47232096 194.5272522 54.80224609 C194.47613954 50.42939743 194.43640279 46.05651815 194.39910889 41.68353271 C194.3589377 37.21212318 194.30790548 32.74083869 194.2578125 28.26953125 C194.16130059 19.51310658 194.07681749 10.7566195 194 2 C193.71063568 2.47654022 193.42127136 2.95308044 193.12313843 3.44406128 C187.06603159 13.4105144 180.9459217 23.32317311 174.625 33.125 C172.65884351 36.1817884 170.69325637 39.23859824 168.74316406 42.30566406 C167.64274286 44.00653919 166.51267404 45.68891867 165.34277344 47.34277344 C164.62782715 48.3757959 164.62782715 48.3757959 163.8984375 49.4296875 C163.27074463 50.2956958 163.27074463 50.2956958 162.63037109 51.17919922 C161.77228042 53.09099389 161.77228042 53.09099389 162.70629883 55.43579102 C163.96100398 57.92270708 165.29586955 60.25414277 166.80078125 62.59765625 C167.35958984 63.47204346 167.91839844 64.34643066 168.49414062 65.24731445 C169.09419922 66.17632568 169.69425781 67.10533691 170.3125 68.0625 C170.93189453 69.02824951 171.55128906 69.99399902 172.18945312 70.98901367 C174.12088179 73.99620888 176.05924238 76.99881831 178 80 C178.60505371 80.93650391 179.21010742 81.87300781 179.83349609 82.83789062 C182.56982925 87.06944248 185.31165499 91.29739757 188.0625 95.51953125 C188.54074219 96.25381348 189.01898438 96.9880957 189.51171875 97.74462891 C190.56377139 99.33893047 191.63034219 100.92369652 192.70703125 102.50146484 C193.25746094 103.30922363 193.80789063 104.11698242 194.375 104.94921875 C194.87773437 105.67842529 195.38046875 106.40763184 195.8984375 107.15893555 C197 109 197 109 197 111 C183.47 111 169.94 111 156 111 C148.75 98.3125 148.75 98.3125 146.48730469 94.3371582 C145.88821289 93.29390381 145.28912109 92.25064941 144.671875 91.17578125 C144.0644043 90.11270752 143.45693359 89.04963379 142.83105469 87.9543457 C141.06714394 85.10833452 139.14781927 82.56452938 137 80 C136.53102295 80.79696289 136.0620459 81.59392578 135.57885742 82.41503906 C133.83075046 85.38312268 132.08052147 88.34993334 130.32885742 91.31591797 C129.57247422 92.59764369 128.81692981 93.8798648 128.06225586 95.16259766 C126.97471986 97.01076364 125.88413776 98.85710222 124.79296875 100.703125 C124.1383667 101.81333008 123.48376465 102.92353516 122.80932617 104.06738281 C122.21224854 105.03514648 121.6151709 106.00291016 121 107 C120.56751796 107.71056423 120.13503592 108.42112846 119.68944836 109.15322495 C118 111 118 111 115.78800678 111.49219131 C114.92059958 111.48850414 114.05319239 111.48481697 113.15950012 111.48101807 C112.16250595 111.48651672 111.16551178 111.49201538 110.13830566 111.49768066 C108.49940369 111.47610901 108.49940369 111.47610901 106.82739258 111.45410156 C105.67603317 111.45468567 104.52467377 111.45526978 103.33842468 111.45587158 C99.52348944 111.45307943 95.70933041 111.42193245 91.89453125 111.390625 C89.25323412 111.38316668 86.61193147 111.37747182 83.97062683 111.37347412 C77.7232158 111.36103766 71.47608448 111.32820733 65.22879666 111.28807616 C57.41886084 111.23899508 49.60887966 111.21708834 41.79882812 111.1953125 C27.86566747 111.15634411 13.93311726 111.07621824 0 111 C0 74.37 0 37.74 0 0 Z M84 8 C84 14.6 84 21.2 84 28 C67.5 28 51 28 34 28 C34 32.29 34 36.58 34 41 C50.17 41 66.34 41 83 41 C83 50.24 83 59.48 83 69 C66.83 69 50.66 69 34 69 C34 73.62 34 78.24 34 83 C50.5 83 67 83 84 83 C84 88.61 84 94.22 84 100 C87.38273397 95.78154209 87.38273397 95.78154209 90.41015625 91.390625 C90.8373999 90.72651611 91.26464355 90.06240723 91.70483398 89.37817383 C92.37687866 88.32472778 92.37687866 88.32472778 93.0625 87.25 C94.03379035 85.73824024 95.00514651 84.22652277 95.9765625 82.71484375 C96.47317383 81.93995605 96.96978516 81.16506836 97.48144531 80.36669922 C99.95678849 76.50882514 102.447302 72.66079508 104.9375 68.8125 C105.38552979 68.11866211 105.83355957 67.42482422 106.29516602 66.70996094 C106.72240967 66.04899414 107.14965332 65.38802734 107.58984375 64.70703125 C108.1928833 63.76077881 108.1928833 63.76077881 108.80810547 62.79541016 C110 61 110 61 111.27392578 59.35693359 C112.61202016 57.67768244 112.61202016 57.67768244 114 55 C112.85857108 51.15879132 110.85487718 47.98940967 108.69140625 44.640625 C108.03148682 43.61445068 107.37156738 42.58827637 106.69165039 41.53100586 C105.63772095 39.90690796 105.63772095 39.90690796 104.5625 38.25 C103.47743234 36.56840805 102.3923649 34.88681596 101.30735779 33.20518494 C100.22459715 31.52858526 99.13964795 29.85339963 98.0546875 28.17822266 C96.20429093 25.3160004 94.36480058 22.44724981 92.53125 19.57421875 C91.54174375 18.02859648 90.55216614 16.4830199 89.5625 14.9375 C89.10883057 14.22432617 88.65516113 13.51115234 88.18774414 12.77636719 C87.15181741 11.16677447 86.08026077 9.58018024 85 8 C84.67 8 84.34 8 84 8 Z " fill="#FFFFFF" transform="translate(183,2)"/>
<path d="M0 0 C11.55 0 23.1 0 35 0 C40.63633637 7.51511516 46.1368898 14.97492343 51.375 22.75 C52.66643558 24.65510458 53.95810439 26.56005109 55.25 28.46484375 C55.8790625 29.39409668 56.508125 30.32334961 57.15625 31.28076172 C59.88202398 35.30084522 62.62546395 39.30864388 65.375 43.3125 C65.83310059 43.9818457 66.29120117 44.65119141 66.76318359 45.34082031 C68.7118583 48.30639443 68.7118583 48.30639443 71 51 C71.33 34.17 71.66 17.34 72 0 C83.22 0 94.44 0 106 0 C106 36.63 106 73.26 106 111 C73 111 73 111 66.9375 105.5 C65.76977539 103.53198242 65.76977539 103.53198242 65.09765625 101.66796875 C62.52257251 95.52989315 58.62227255 90.28215559 54.875 84.8125 C53.55789474 82.82033198 52.24274687 80.82686828 50.9296875 78.83203125 C47.70118107 73.98279192 44.32862833 69.2596891 40.86376953 64.5769043 C38.83415591 61.77069893 36.92106702 58.88160052 35 56 C34.67 74.15 34.34 92.3 34 111 C22.78 111 11.56 111 0 111 C0 74.37 0 37.74 0 0 Z " fill="#FFFFFF" transform="translate(68,2)"/>
<path d="M0 0 C1.35443277 1.11448664 2.65058928 2.29955828 3.92578125 3.50390625 C0.855607 9.20565843 -2.74430631 14.25870712 -6.69921875 19.37890625 C-7.28445313 20.14976563 -7.8696875 20.920625 -8.47265625 21.71484375 C-12.81805804 27.37582589 -12.81805804 27.37582589 -15.07421875 28.50390625 C-17 27.4296875 -17 27.4296875 -19.38671875 25.81640625 C-29.29773241 19.69867264 -40.80970594 16.44684414 -52.4140625 19.0234375 C-52.96191406 19.18199219 -53.50976562 19.34054688 -54.07421875 19.50390625 C-54.07421875 21.48390625 -54.07421875 23.46390625 -54.07421875 25.50390625 C-51.78338148 26.09066021 -49.4917697 26.67390499 -47.19921875 27.25390625 C-46.48757568 27.434375 -45.77593262 27.61484375 -45.04272461 27.80078125 C-40.3684824 28.97150133 -35.68194286 30.02511693 -30.96582031 31.01245117 C-23.95670355 32.49141889 -17.3791374 33.96476273 -11.07421875 37.50390625 C-10.38199219 37.87257812 -9.68976563 38.24125 -8.9765625 38.62109375 C-1.70753242 42.77870722 3.44068963 48.37690359 5.92578125 56.50390625 C6.35175813 59.43366137 6.40358844 62.29668127 6.36328125 65.25390625 C6.35425781 66.04595459 6.34523438 66.83800293 6.3359375 67.65405273 C6.03826563 77.78419852 3.23714595 85.22382703 -3.88671875 92.5703125 C-14.36813598 101.83513666 -28.31928779 104.22091751 -41.88671875 104.00390625 C-43.11213379 103.99109619 -44.33754883 103.97828613 -45.60009766 103.96508789 C-63.13721257 103.57395568 -80.18649931 99.08477523 -93.07421875 86.50390625 C-91.69213068 82.59617501 -89.87311991 79.62346634 -87.38671875 76.31640625 C-83.51774636 71.11062256 -79.7725826 65.83186168 -76.07421875 60.50390625 C-72.8544464 62.00597095 -70.05934967 63.86602661 -67.13671875 65.87890625 C-57.06122106 72.27965346 -46.02080609 75.17823857 -34.07421875 73.50390625 C-31.23788362 72.09289246 -31.23788362 72.09289246 -29.07421875 70.50390625 C-28.93981097 68.0747076 -28.93981097 68.0747076 -30.07421875 65.50390625 C-35.65019871 62.95545718 -41.32990312 61.71281463 -47.31323242 60.46313477 C-76.88693193 54.26862924 -76.88693193 54.26862924 -85.07421875 42.50390625 C-90.37566574 33.93880571 -90.50471908 23.21831718 -88.44921875 13.5703125 C-85.51545734 5.17503988 -79.13345668 -2.16209085 -71.33203125 -6.43359375 C-70.58695312 -6.78421875 -69.841875 -7.13484375 -69.07421875 -7.49609375 C-68.26726562 -7.88796875 -67.4603125 -8.27984375 -66.62890625 -8.68359375 C-46.15073117 -16.71862702 -17.70088641 -12.76730602 0 0 Z " fill="#FFFFFF" transform="translate(577.07421875,11.49609375)"/>
<path d="M0 0 C19 0 19 0 23.3125 3.62890625 C24.73364258 5.99414062 24.73364258 5.99414062 26 8.5625 C27.02186277 10.31548223 28.0466445 12.0667659 29.07421875 13.81640625 C29.55938965 14.69312988 30.04456055 15.56985352 30.54443359 16.47314453 C32.6901675 20.19812708 35.21359837 23.58280785 37.8125 27 C38.63291607 28.10312264 39.45194093 29.2072814 40.26953125 30.3125 C41.62111328 32.1378125 41.62111328 32.1378125 43 34 C45.64 37.63 48.28 41.26 51 45 C51.33 30.15 51.66 15.3 52 0 C57.61 0 63.22 0 69 0 C69 25.41 69 50.82 69 77 C52 77 52 77 48.20703125 73.984375 C46.95019531 71.97119141 46.95019531 71.97119141 45.8125 69.75 C44.86809479 68.18876556 43.92137838 66.62892743 42.97265625 65.0703125 C42.49715332 64.2443457 42.02165039 63.41837891 41.53173828 62.56738281 C38.85520006 58.0811737 35.78001118 53.87665273 32.75 49.625 C31.63970975 48.03449269 30.53031776 46.4433579 29.421875 44.8515625 C25.66815939 39.52951366 21.83055526 34.26701349 18 29 C17.67 44.84 17.34 60.68 17 77 C11.39 77 5.78 77 0 77 C0 51.59 0 26.18 0 0 Z " fill="#FFFFFF" transform="translate(347,119)"/>
<path d="M0 0 C4.83986438 3.66350846 9.59803802 7.28722555 12 13 C10.44038638 13.96302356 8.87716775 14.92021004 7.3125 15.875 C6.00732422 16.67550781 6.00732422 16.67550781 4.67578125 17.4921875 C2.16608918 18.90640814 -0.30299069 19.99894789 -3 21 C-3.77923828 20.27683594 -3.77923828 20.27683594 -4.57421875 19.5390625 C-10.43767678 14.2283519 -14.53169885 11.46325105 -22.59765625 11.69140625 C-28.44185241 12.44212413 -33.30151421 14.8704704 -37.375 19.125 C-41.83524906 24.96432328 -43.34027381 31.35493275 -42.9375 38.625 C-41.88603268 46.47226662 -39.05391445 51.92194806 -32.78125 56.8125 C-27.64036469 60.23975688 -22.0116502 60.81367877 -16 60 C-10.06229724 58.30678947 -10.06229724 58.30678947 -5 55 C-4.67 52.03 -4.34 49.06 -4 46 C-10.93 46 -17.86 46 -25 46 C-25 41.38 -25 36.76 -25 32 C-12.79 32 -0.58 32 12 32 C12.165 36.970625 12.33 41.94125 12.5 47.0625 C12.60924805 49.39453491 12.60924805 49.39453491 12.72070312 51.77368164 C12.87912439 61.61560278 12.87912439 61.61560278 10.46484375 65.41748047 C8.41778666 67.29278106 6.41266418 68.63536736 4 70 C3.42822021 70.42023438 2.85644043 70.84046875 2.26733398 71.2734375 C-3.80588263 75.21374249 -11.23364408 74.63717178 -18.20825195 74.57641602 C-20.43007318 74.56254636 -22.64767341 74.59668894 -24.86914062 74.63476562 C-32.97754234 74.67807955 -39.34223462 74.073267 -46 69 C-47.051875 68.2575 -48.10375 67.515 -49.1875 66.75 C-57.15286077 58.96164725 -61.3114893 49.79710505 -61.46850586 38.65551758 C-61.45827393 37.82044678 -61.44804199 36.98537598 -61.4375 36.125 C-61.42920166 35.24803467 -61.42090332 34.37106934 -61.41235352 33.4675293 C-61.12531541 22.44056708 -57.82066191 13.92906713 -50 6 C-47.16992689 3.60326512 -44.27084123 1.74127308 -41 0 C-40.22398437 -0.41378906 -39.44796875 -0.82757813 -38.6484375 -1.25390625 C-27.44509524 -6.23124252 -10.64286889 -6.43006662 0 0 Z " fill="#FFFFFF" transform="translate(488,122)"/>
<path d="M0 0 C6.6 0 13.2 0 20 0 C24.91468509 12.45888322 29.53832563 24.97627484 33.9375 37.625 C34.53161282 39.32562155 35.12601281 41.02614281 35.72070312 42.7265625 C37.15042662 46.81656739 38.57633378 50.90788294 40 55 C42.99250915 48.55320866 45.51451144 42.02058706 47.85546875 35.3125 C48.20257401 34.32878418 48.54967926 33.34506836 48.90730286 32.33154297 C50.00416315 29.22223436 51.09630232 26.11129998 52.1875 23 C53.28970398 19.86024315 54.39299 16.72088864 55.49983215 13.58276367 C56.18595628 11.63729171 56.86937369 9.69086266 57.54985046 7.7434082 C57.8571962 6.87159912 58.16454193 5.99979004 58.48120117 5.1015625 C58.75115402 4.33150879 59.02110687 3.56145508 59.29924011 2.76806641 C60 1 60 1 61 0 C62.41570123 -0.08651611 63.835595 -0.10704904 65.25390625 -0.09765625 C66.53491211 -0.09282227 66.53491211 -0.09282227 67.84179688 -0.08789062 C69.18854492 -0.07532227 69.18854492 -0.07532227 70.5625 -0.0625 C71.46419922 -0.05798828 72.36589844 -0.05347656 73.29492188 -0.04882812 C75.53001314 -0.03700225 77.76497437 -0.0205222 80 0 C79.36683409 6.15337638 77.00589869 11.6157813 74.7734375 17.328125 C74.34753326 18.43113953 73.92162903 19.53415405 73.4828186 20.67059326 C72.11888652 24.19915676 70.74706386 27.72459164 69.375 31.25 C68.47474044 33.57531959 67.57499574 35.90083858 66.67578125 38.2265625 C64.93242695 42.73282881 63.18463657 47.23733015 61.43261719 51.74023438 C59.88916227 55.70738519 58.35263013 59.67704498 56.82519531 63.65039062 C56.49903229 64.49655945 56.17286926 65.34272827 55.83682251 66.21453857 C55.23870081 67.76684211 54.64252902 69.31989893 54.04867554 70.87384033 C52.11243421 75.88756579 52.11243421 75.88756579 51 77 C49.36527118 77.08700342 47.72685945 77.10701063 46.08984375 77.09765625 C45.10048828 77.09443359 44.11113281 77.09121094 43.09179688 77.08789062 C42.05087891 77.07951172 41.00996094 77.07113281 39.9375 77.0625 C38.89271484 77.05798828 37.84792969 77.05347656 36.77148438 77.04882812 C34.1809334 77.03699913 31.59049441 77.02051689 29 77 C28.78417267 76.43133209 28.56834534 75.86266418 28.34597778 75.27676392 C25.60652136 68.05917901 22.86592003 60.84202921 20.125 53.625 C19.47439102 51.91160934 19.47439102 51.91160934 18.81063843 50.16360474 C13.44201709 36.02699705 8.06941641 21.89237373 2.59228516 7.79736328 C2.23827637 6.88325684 1.88426758 5.96915039 1.51953125 5.02734375 C1.07250854 3.87866821 1.07250854 3.87866821 0.61645508 2.70678711 C0 1 0 1 0 0 Z " fill="#FFFFFF" transform="translate(229,119)"/>
<path d="M0 0 C5.61 0 11.22 0 17 0 C17 20.46 17 40.92 17 62 C27.89 62 38.78 62 50 62 C50 66.95 50 71.9 50 77 C33.5 77 17 77 0 77 C0 51.59 0 26.18 0 0 Z " fill="#FFFFFF" transform="translate(146,119)"/>
<path d="M0 0 C5.61 0 11.22 0 17 0 C17 25.41 17 50.82 17 77 C11.39 77 5.78 77 0 77 C0 51.59 0 26.18 0 0 Z " fill="#FFFFFF" transform="translate(315,119)"/>
<path d="M0 0 C5.61 0 11.22 0 17 0 C17 25.41 17 50.82 17 77 C11.39 77 5.78 77 0 77 C0 51.59 0 26.18 0 0 Z " fill="#FFFFFF" transform="translate(206,119)"/>
</svg>
