<?xml version="1.0" encoding="UTF-8"?>
<svg id="Layer_1" xmlns="http://www.w3.org/2000/svg" version="1.1" viewBox="0 0 306.1 196">
  <!-- Generator: Adobe Illustrator 30.1.0, SVG Export Plug-In . SVG Version: 2.1.1 Build 136)  -->
  <defs>
    <style>
      .st0, .st1 {
        fill: #fff;
      }

      .st2, .st1 {
        isolation: isolate;
      }

      .st1 {
        font-family: Lato-Regular, Lato;
        font-size: 18.91px;
        letter-spacing: .43em;
      }
    </style>
  </defs>
  <g>
    <path class="st0" d="M134.57,8.18c1.1,4.79,1.84,10.77,2.3,17.91s.71,14.78.81,22.92.13,15.46.13,21.99v24.06h3.78v-24.06c0-6.5.03-13.84.13-21.99.1-8.15.36-15.78.81-22.92s1.23-13.13,2.3-17.91c1.1-4.79,2.62-7.18,4.62-7.18h-19.53c2,0,3.52,2.39,4.62,7.18h.03Z"/>
    <path class="st0" d="M14.94,183.75c-1.1-4.79-1.84-10.77-2.3-17.91-.45-7.15-.71-14.78-.81-22.92-.1-8.15-.13-15.46-.13-21.99V18.91l55.03,76.14h29.16L27.94,1H0c2.17,0,3.78,2.39,4.88,7.18s1.84,10.77,2.3,17.91c.45,7.15.68,14.78.68,22.92v93.86c0,8.15-.23,15.78-.68,22.92-.45,7.15-1.23,13.13-2.3,17.91C3.78,188.5,2.17,190.89,0,190.89h19.53c-2,0-3.52-2.39-4.62-7.18l.03.03Z"/>
    <polygon class="st0" points="137.84 115.14 137.84 153.23 110.35 115.14 81.22 115.14 138.94 195 141.65 195 141.65 115.14 137.84 115.14"/>
  </g>
  <g>
    <path class="st0" d="M184.24,8.18c1.1,4.79,1.84,10.77,2.3,17.91s.68,14.78.68,22.92v46.01h21.99v-25.12c0-6.5.03-13.81.13-21.86s.36-15.55.81-22.5c.45-6.95,1.23-12.8,2.3-17.49,1.1-4.69,2.72-7.05,4.88-7.05h-37.99c2.17,0,3.78,2.39,4.88,7.18h.03Z"/>
    <path class="st0" d="M280.01,185.91c-9.76,1.71-21.44,2.59-34.98,2.59h-15.46c-8.15-.36-13.58-2.26-16.26-5.69-2.72-3.43-4.07-8.05-4.07-13.84v-53.83h-21.99v27.77c0,8.15-.23,15.78-.68,22.92s-1.23,13.13-2.3,17.91c-1.1,4.79-2.72,7.18-4.88,7.18h126.71v-13.03c-7.6,3.62-16.26,6.27-26.06,8.02h-.03Z"/>
  </g>
  <g class="st2">
    <text class="st1" transform="translate(41.52 111.48)"><tspan x="0" y="0">NEXUS LIVING</tspan></text>
  </g>
</svg>